STARTFONT 2.3
FONT -FontForge-Righteous-Book-R-Normal--14-140-72-72-P-75-ISO10646-1
SIZE 14 72 72  2
FONTBOUNDINGBOX 18 18 -2 -4
COMMENT "Generated by fontforge, http://fontforge.sourceforge.net"
COMMENT "Copyright (c) 2011 by Brian J. Bonislawsky DBA Astigmatic (AOETI) (astigma@astigmatic.com), with ReservedFont Name "Righteous""
STARTPROPERTIES 40
FOUNDRY "FontForge"
FAMILY_NAME "Righteous"
WEIGHT_NAME "Book"
SLANT "R"
SETWIDTH_NAME "Normal"
ADD_STYLE_NAME ""
PIXEL_SIZE 14
POINT_SIZE 140
RESOLUTION_X 72
RESOLUTION_Y 72
SPACING "P"
AVERAGE_WIDTH 75
CHARSET_REGISTRY "ISO10646"
CHARSET_ENCODING "1"
FONTNAME_REGISTRY ""
CHARSET_COLLECTIONS "ISO8859-2 ISO8859-9 ISO8859-4 ISO10646-1"
BITS_PER_PIXEL 2
FONT_NAME "Righteous-Regular"
FACE_NAME "Righteous"
COPYRIGHT "Copyright (c) 2011 by Brian J. Bonislawsky DBA Astigmatic (AOETI) (astigma@astigmatic.com), with ReservedFont Name "Righteous""
FONT_VERSION "1.000"
FONT_ASCENT 11
FONT_DESCENT 3
UNDERLINE_POSITION -2
UNDERLINE_THICKNESS 1
X_HEIGHT 7
CAP_HEIGHT 9
RAW_ASCENT 799
RAW_DESCENT 200
NORM_SPACE 4
RELATIVE_WEIGHT 40
RELATIVE_SETWIDTH 50
SUPERSCRIPT_X 0
SUPERSCRIPT_Y 6
SUPERSCRIPT_SIZE 9
SUBSCRIPT_X 0
SUBSCRIPT_Y 1
SUBSCRIPT_SIZE 9
AVG_LOWERCASE_WIDTH 74
AVG_UPPERCASE_WIDTH 88
ENDPROPERTIES
CHARS 372
STARTCHAR space
ENCODING 32
SWIDTH 279 0
DWIDTH 4 0
BBX 1 1 0 0
BITMAP
00
ENDCHAR
STARTCHAR exclam
ENCODING 33
SWIDTH 274 0
DWIDTH 4 0
BBX 3 11 0 -1
BITMAP
68
7C
3C
3C
3C
38
38
14
28
7C
14
ENDCHAR
STARTCHAR quotedbl
ENCODING 34
SWIDTH 409 0
DWIDTH 6 0
BBX 5 4 0 6
BITMAP
6680
7AC0
36C0
1140
ENDCHAR
STARTCHAR numbersign
ENCODING 35
SWIDTH 561 0
DWIDTH 8 0
BBX 8 7 0 1
BITMAP
0778
1FBD
2FF8
1EB4
7FF4
2DD0
1540
ENDCHAR
STARTCHAR dollar
ENCODING 36
SWIDTH 458 0
DWIDTH 6 0
BBX 6 10 0 0
BITMAP
0600
0700
2FD0
7A90
7A80
1AE0
6AE0
7F90
0700
0700
ENDCHAR
STARTCHAR percent
ENCODING 37
SWIDTH 685 0
DWIDTH 10 0
BBX 9 10 0 0
BITMAP
2E0600
774E00
735C00
777400
2EB000
00DA40
02AEC0
0765C0
0A29C0
1C1F40
ENDCHAR
STARTCHAR ampersand
ENCODING 38
SWIDTH 485 0
DWIDTH 7 0
BBX 5 10 1 0
BITMAP
0900
1E80
BFC0
D000
E900
BE00
D000
FA80
6FC0
0900
ENDCHAR
STARTCHAR quotesingle
ENCODING 39
SWIDTH 238 0
DWIDTH 3 0
BBX 3 4 0 6
BITMAP
64
78
34
10
ENDCHAR
STARTCHAR parenleft
ENCODING 40
SWIDTH 351 0
DWIDTH 5 0
BBX 5 14 0 -2
BITMAP
0100
0F40
2E00
3D00
7800
7800
7400
7800
7800
3C00
3D00
1E00
0F40
0540
ENDCHAR
STARTCHAR parenright
ENCODING 41
SWIDTH 351 0
DWIDTH 5 0
BBX 5 14 0 -2
BITMAP
1000
7800
2D00
1F00
0F00
0B40
0B40
0B40
0B40
0F00
1E00
2D00
7800
5400
ENDCHAR
STARTCHAR asterisk
ENCODING 42
SWIDTH 589 0
DWIDTH 8 0
BBX 8 8 0 4
BITMAP
0280
03C0
3BED
7FFD
0BE0
1FF4
2E7C
0410
ENDCHAR
STARTCHAR plus
ENCODING 43
SWIDTH 485 0
DWIDTH 7 0
BBX 7 6 0 2
BITMAP
0740
0B40
7FF4
7FF4
0B40
0740
ENDCHAR
STARTCHAR comma
ENCODING 44
SWIDTH 264 0
DWIDTH 4 0
BBX 3 4 0 -2
BITMAP
28
7C
28
14
ENDCHAR
STARTCHAR hyphen
ENCODING 45
SWIDTH 528 0
DWIDTH 7 0
BBX 7 2 0 4
BITMAP
3FF4
7FF8
ENDCHAR
STARTCHAR period
ENCODING 46
SWIDTH 263 0
DWIDTH 4 0
BBX 3 3 0 -1
BITMAP
28
7C
14
ENDCHAR
STARTCHAR slash
ENCODING 47
SWIDTH 490 0
DWIDTH 7 0
BBX 7 10 0 0
BITMAP
00A4
00F0
02E0
03C0
0780
0B40
0F00
2D00
3C00
7800
ENDCHAR
STARTCHAR zero
ENCODING 48
SWIDTH 642 0
DWIDTH 9 0
BBX 9 10 0 0
BITMAP
06E400
1FFD00
3D1F00
780B40
780B40
780740
780B40
3C0F00
2FBE00
0BF800
ENDCHAR
STARTCHAR one
ENCODING 49
SWIDTH 317 0
DWIDTH 4 0
BBX 4 10 0 0
BITMAP
69
7D
2D
1D
1D
1D
1D
1D
1D
1D
ENDCHAR
STARTCHAR two
ENCODING 50
SWIDTH 570 0
DWIDTH 8 0
BBX 8 10 0 0
BITMAP
2AA0
3FFC
006D
002D
0BFC
3FF4
7800
7800
7FFD
7FFD
ENDCHAR
STARTCHAR three
ENCODING 51
SWIDTH 586 0
DWIDTH 8 0
BBX 8 10 0 0
BITMAP
6AA0
7FFC
006D
002D
0FFC
0FFC
002D
002D
7FFC
7FE4
ENDCHAR
STARTCHAR four
ENCODING 52
SWIDTH 630 0
DWIDTH 9 0
BBX 9 10 0 0
BITMAP
190000
2D2900
2C2D00
3C2D00
3C2D00
782D00
7FFF40
BFFF40
002D00
002D00
ENDCHAR
STARTCHAR five
ENCODING 53
SWIDTH 585 0
DWIDTH 8 0
BBX 8 10 0 0
BITMAP
2AA9
3FFD
3C00
3C00
7FF4
6ABD
001E
001E
7FFD
7FF4
ENDCHAR
STARTCHAR six
ENCODING 54
SWIDTH 615 0
DWIDTH 9 0
BBX 8 11 0 -1
BITMAP
0290
0F40
2E50
3FF8
7EBE
7C0F
780F
7C1F
2FBD
0BF8
0040
ENDCHAR
STARTCHAR seven
ENCODING 55
SWIDTH 516 0
DWIDTH 7 0
BBX 7 10 0 0
BITMAP
AAA8
BFF8
00B4
00F0
01E0
02D0
03C0
0780
0B40
0F00
ENDCHAR
STARTCHAR eight
ENCODING 56
SWIDTH 618 0
DWIDTH 9 0
BBX 8 11 0 -1
BITMAP
0BF4
2FBD
3C1E
2D2D
1FFC
3EBE
780F
780F
3E6E
1FF8
0040
ENDCHAR
STARTCHAR nine
ENCODING 57
SWIDTH 616 0
DWIDTH 9 0
BBX 8 10 0 0
BITMAP
0BE4
2FFD
7C2E
780F
780F
3D6F
1FFE
057D
00B8
02E0
ENDCHAR
STARTCHAR colon
ENCODING 58
SWIDTH 276 0
DWIDTH 4 0
BBX 3 7 0 -1
BITMAP
28
7C
14
00
28
3C
14
ENDCHAR
STARTCHAR semicolon
ENCODING 59
SWIDTH 276 0
DWIDTH 4 0
BBX 3 8 0 -2
BITMAP
28
7C
14
00
28
3C
2C
14
ENDCHAR
STARTCHAR less
ENCODING 60
SWIDTH 478 0
DWIDTH 7 0
BBX 6 9 0 1
BITMAP
0040
01E0
07D0
1F40
7D00
2F40
0BD0
02E0
0040
ENDCHAR
STARTCHAR equal
ENCODING 61
SWIDTH 539 0
DWIDTH 8 0
BBX 6 6 1 2
BITMAP
5550
FFE0
AA90
5550
FFE0
5550
ENDCHAR
STARTCHAR greater
ENCODING 62
SWIDTH 478 0
DWIDTH 7 0
BBX 5 9 1 1
BITMAP
1000
F400
BD00
2F00
0BC0
1F40
BD00
F400
5000
ENDCHAR
STARTCHAR question
ENCODING 63
SWIDTH 603 0
DWIDTH 8 0
BBX 8 11 0 -1
BITMAP
6AA4
7FFD
001F
000F
01BE
07F8
0B40
0600
0A00
0F40
0500
ENDCHAR
STARTCHAR at
ENCODING 64
SWIDTH 629 0
DWIDTH 9 0
BBX 9 9 0 -1
BITMAP
019000
1FBD00
396E00
77F740
777740
77FF00
2D0000
0BD000
004000
ENDCHAR
STARTCHAR A
ENCODING 65
SWIDTH 673 0
DWIDTH 9 0
BBX 9 10 0 0
BITMAP
02A400
1FFE00
2E5F40
3C0780
780780
780780
7FFF80
7FFF80
780780
780780
ENDCHAR
STARTCHAR B
ENCODING 66
SWIDTH 666 0
DWIDTH 9 0
BBX 8 10 1 0
BITMAP
AAA4
FFFD
F02E
F01E
FFFD
FFFD
F02E
F01E
FFFD
FFF4
ENDCHAR
STARTCHAR C
ENCODING 67
SWIDTH 640 0
DWIDTH 9 0
BBX 9 11 0 -1
BITMAP
02B900
0FFF80
2E4600
780000
B40000
B40000
780000
3E0100
1FEF40
06FE00
001000
ENDCHAR
STARTCHAR D
ENCODING 68
SWIDTH 653 0
DWIDTH 9 0
BBX 8 10 1 0
BITMAP
AA40
FFF4
F1BC
F02D
F01E
F01E
F02E
F0BC
FFF4
FF90
ENDCHAR
STARTCHAR E
ENCODING 69
SWIDTH 578 0
DWIDTH 8 0
BBX 7 10 1 0
BITMAP
AAA4
FFF8
F000
F000
FFC0
FFC0
F000
F000
FFF8
FFF8
ENDCHAR
STARTCHAR F
ENCODING 70
SWIDTH 562 0
DWIDTH 8 0
BBX 7 10 1 0
BITMAP
AAA8
FFF8
F000
F000
FF80
FF80
F000
F000
F000
F000
ENDCHAR
STARTCHAR G
ENCODING 71
SWIDTH 665 0
DWIDTH 9 0
BBX 9 11 0 -1
BITMAP
01B900
0FFF40
2E4600
7C0000
B40000
B40380
780780
3D0780
1FEF80
06FE40
001000
ENDCHAR
STARTCHAR H
ENCODING 72
SWIDTH 689 0
DWIDTH 10 0
BBX 8 10 1 0
BITMAP
A01A
F01E
F01E
F01E
FFFE
FFFE
F01E
F01E
F01E
F01E
ENDCHAR
STARTCHAR I
ENCODING 73
SWIDTH 270 0
DWIDTH 4 0
BBX 2 10 1 0
BITMAP
A0
F0
F0
F0
F0
F0
F0
F0
F0
F0
ENDCHAR
STARTCHAR J
ENCODING 74
SWIDTH 416 0
DWIDTH 6 0
BBX 5 10 0 0
BITMAP
0280
03C0
03C0
03C0
03C0
03C0
03C0
0B80
FF00
B800
ENDCHAR
STARTCHAR K
ENCODING 75
SWIDTH 625 0
DWIDTH 9 0
BBX 8 10 1 0
BITMAP
A029
F078
F1F0
F3D0
FB80
FFD0
FDE0
F4B4
F07C
F02D
ENDCHAR
STARTCHAR L
ENCODING 76
SWIDTH 562 0
DWIDTH 8 0
BBX 7 10 1 0
BITMAP
A000
F000
F000
F000
F000
F000
F000
F000
FFF8
FFF8
ENDCHAR
STARTCHAR M
ENCODING 77
SWIDTH 819 0
DWIDTH 11 0
BBX 10 10 1 0
BITMAP
2E6E40
BFFFD0
F1F2E0
E1E1E0
E1E1E0
E1E1E0
E1E1E0
E1E1E0
E1E1E0
E1E1E0
ENDCHAR
STARTCHAR N
ENCODING 78
SWIDTH 689 0
DWIDTH 10 0
BBX 8 10 1 0
BITMAP
A41A
F81E
FD1E
FF1E
FB9E
F3DE
F1FE
F0BE
F07E
F02E
ENDCHAR
STARTCHAR O
ENCODING 79
SWIDTH 777 0
DWIDTH 11 0
BBX 11 11 0 -1
BITMAP
01B900
0FFF80
2E46E0
7800F4
B400B4
B400B4
7800B4
3E02F0
1FEFD0
06FE40
001000
ENDCHAR
STARTCHAR P
ENCODING 80
SWIDTH 642 0
DWIDTH 9 0
BBX 8 10 1 0
BITMAP
AA90
FFF8
F07D
F01E
F01E
F02D
FFF8
FFE0
F000
F000
ENDCHAR
STARTCHAR Q
ENCODING 81
SWIDTH 777 0
DWIDTH 11 0
BBX 11 12 0 -2
BITMAP
01B900
0FFF80
2E46E0
7800F4
B400B4
B400B4
7800B4
3E02F0
1FEFD0
06FF00
001F40
000780
ENDCHAR
STARTCHAR R
ENCODING 82
SWIDTH 651 0
DWIDTH 9 0
BBX 8 10 1 0
BITMAP
AA90
FFF8
F07D
F01E
F01E
F02D
FFFC
FFF0
F0B4
F078
ENDCHAR
STARTCHAR S
ENCODING 83
SWIDTH 610 0
DWIDTH 9 0
BBX 8 10 0 0
BITMAP
1AAA
3FFE
B800
B400
7FE8
1FFE
001F
000F
3FFE
3FF8
ENDCHAR
STARTCHAR T
ENCODING 84
SWIDTH 578 0
DWIDTH 8 0
BBX 8 10 0 0
BITMAP
AAAA
FFFF
03D0
03C0
03C0
03C0
03C0
03C0
03C0
03C0
ENDCHAR
STARTCHAR U
ENCODING 85
SWIDTH 673 0
DWIDTH 9 0
BBX 9 10 0 0
BITMAP
280680
780780
780780
780780
780780
780780
3C0780
3D1F40
1FFE00
06F800
ENDCHAR
STARTCHAR V
ENCODING 86
SWIDTH 602 0
DWIDTH 8 0
BBX 9 10 0 0
BITMAP
A40A40
B81F00
7C2E00
3D3D00
2E3C00
1F7800
0FF400
0BF000
07E000
03D000
ENDCHAR
STARTCHAR W
ENCODING 87
SWIDTH 819 0
DWIDTH 11 0
BBX 10 10 1 0
BITMAP
A1A1A0
E1E1E0
E1E1E0
E1E1E0
E1E1E0
E1E1E0
E1E1E0
F1E1E0
BFFFD0
2FBF40
ENDCHAR
STARTCHAR X
ENCODING 88
SWIDTH 608 0
DWIDTH 9 0
BBX 9 10 0 0
BITMAP
A40A40
7C2E00
2E7C00
0FF400
07F000
07E000
0BF400
1F7C00
3D2E00
B81F40
ENDCHAR
STARTCHAR Y
ENCODING 89
SWIDTH 620 0
DWIDTH 9 0
BBX 9 10 0 0
BITMAP
640A40
B40B40
B40B40
B40B40
7C1F00
2FFD00
0BF400
02D000
02D000
02D000
ENDCHAR
STARTCHAR Z
ENCODING 90
SWIDTH 586 0
DWIDTH 8 0
BBX 8 10 0 0
BITMAP
AAAA
BFFD
00B8
01F0
02E0
07C0
0B80
1F00
3FFF
7FFF
ENDCHAR
STARTCHAR bracketleft
ENCODING 91
SWIDTH 380 0
DWIDTH 5 0
BBX 4 14 1 -2
BITMAP
54
FE
FA
F0
F0
F0
F0
F0
F0
F0
F0
F9
FE
55
ENDCHAR
STARTCHAR backslash
ENCODING 92
SWIDTH 490 0
DWIDTH 7 0
BBX 7 10 0 0
BITMAP
6400
3C00
2D00
1E00
0B40
0780
03C0
02D0
01F0
00B4
ENDCHAR
STARTCHAR bracketright
ENCODING 93
SWIDTH 380 0
DWIDTH 5 0
BBX 5 14 0 -2
BITMAP
1500
7F40
6F40
0B40
0B40
0B40
0B40
0B40
0B40
0B40
0B40
6B40
7F40
5540
ENDCHAR
STARTCHAR asciicircum
ENCODING 94
SWIDTH 293 0
DWIDTH 4 0
BBX 4 3 0 7
BITMAP
14
7D
A6
ENDCHAR
STARTCHAR underscore
ENCODING 95
SWIDTH 598 0
DWIDTH 8 0
BBX 6 3 1 -4
BITMAP
6AA0
BFF0
5550
ENDCHAR
STARTCHAR grave
ENCODING 96
SWIDTH 225 0
DWIDTH 3 0
BBX 3 3 0 7
BITMAP
10
B8
28
ENDCHAR
STARTCHAR a
ENCODING 97
SWIDTH 607 0
DWIDTH 9 0
BBX 8 8 0 0
BITMAP
0691
2FFA
7D7E
B41E
B40E
782E
3FFE
1BE6
ENDCHAR
STARTCHAR b
ENCODING 98
SWIDTH 597 0
DWIDTH 8 0
BBX 8 11 0 0
BITMAP
1000
7400
7400
7590
7FF8
7E6E
780F
780F
7C1F
2FBD
0BF4
ENDCHAR
STARTCHAR c
ENCODING 99
SWIDTH 521 0
DWIDTH 7 0
BBX 7 8 0 0
BITMAP
0690
1FF8
7D78
B410
B400
B810
3FBC
0BE4
ENDCHAR
STARTCHAR d
ENCODING 100
SWIDTH 606 0
DWIDTH 9 0
BBX 8 11 0 0
BITMAP
0005
000E
000E
069E
1FFE
7D7E
B41E
B40E
782E
3FFE
0BE6
ENDCHAR
STARTCHAR e
ENCODING 101
SWIDTH 524 0
DWIDTH 7 0
BBX 7 8 0 0
BITMAP
0690
2FF8
7DB8
B5E0
B7C0
7F50
3FBC
0BE4
ENDCHAR
STARTCHAR f
ENCODING 102
SWIDTH 395 0
DWIDTH 6 0
BBX 6 11 0 0
BITMAP
06F0
1FE0
2D00
7D40
BFD0
7E90
2C00
2C00
2C00
2C00
2C00
ENDCHAR
STARTCHAR g
ENCODING 103
SWIDTH 607 0
DWIDTH 9 0
BBX 8 11 0 -3
BITMAP
0691
1FFA
7D7E
B41E
B40E
782E
3FFE
1BFE
006D
03F8
0290
ENDCHAR
STARTCHAR h
ENCODING 104
SWIDTH 562 0
DWIDTH 8 0
BBX 8 11 0 0
BITMAP
1000
7800
7800
7940
7FF4
7EBC
782D
782D
782D
782D
782D
ENDCHAR
STARTCHAR i
ENCODING 105
SWIDTH 235 0
DWIDTH 3 0
BBX 3 11 0 0
BITMAP
14
BC
78
14
78
78
78
78
78
78
78
ENDCHAR
STARTCHAR j
ENCODING 106
SWIDTH 237 0
DWIDTH 3 0
BBX 5 14 -2 -3
BITMAP
0140
07C0
0780
0140
0780
0780
0780
0780
0780
0780
0780
1F40
FE00
A400
ENDCHAR
STARTCHAR k
ENCODING 107
SWIDTH 539 0
DWIDTH 8 0
BBX 8 11 0 0
BITMAP
1000
7800
7800
7814
7878
78F0
7AD0
7FE0
7EF0
7C78
783D
ENDCHAR
STARTCHAR l
ENCODING 108
SWIDTH 235 0
DWIDTH 3 0
BBX 3 11 0 0
BITMAP
10
78
78
78
78
78
78
78
78
78
78
ENDCHAR
STARTCHAR m
ENCODING 109
SWIDTH 762 0
DWIDTH 11 0
BBX 10 8 0 0
BITMAP
054500
7FFFD0
7DFAE0
78B4F0
78B4F0
78B4F0
78B4F0
78B4F0
ENDCHAR
STARTCHAR n
ENCODING 110
SWIDTH 562 0
DWIDTH 8 0
BBX 8 8 0 0
BITMAP
0140
7FF4
7EBC
782D
782D
782D
782D
782D
ENDCHAR
STARTCHAR o
ENCODING 111
SWIDTH 579 0
DWIDTH 8 0
BBX 8 8 0 0
BITMAP
0690
2FF8
7D7D
B41E
B40E
782E
3FFC
0BE4
ENDCHAR
STARTCHAR p
ENCODING 112
SWIDTH 608 0
DWIDTH 9 0
BBX 9 11 0 -3
BITMAP
019000
6FFC00
7E6E00
780F00
780B40
7C0F00
7FBE00
7FF800
780000
780000
640000
ENDCHAR
STARTCHAR q
ENCODING 113
SWIDTH 607 0
DWIDTH 9 0
BBX 8 11 0 -3
BITMAP
0691
2FFA
7D7E
B41E
B40E
782E
3FFE
0BEE
000E
000E
000A
ENDCHAR
STARTCHAR r
ENCODING 114
SWIDTH 414 0
DWIDTH 6 0
BBX 6 8 0 0
BITMAP
0150
6FE0
7E90
7800
7800
7800
7800
7800
ENDCHAR
STARTCHAR s
ENCODING 115
SWIDTH 523 0
DWIDTH 7 0
BBX 7 8 0 0
BITMAP
0554
2FF8
7AA4
7A50
3FF8
057C
7FFC
BFE4
ENDCHAR
STARTCHAR t
ENCODING 116
SWIDTH 437 0
DWIDTH 6 0
BBX 6 11 0 0
BITMAP
1400
3C00
3C00
7D50
BFE0
7E90
3C00
3C00
2D00
1FE0
06E0
ENDCHAR
STARTCHAR u
ENCODING 117
SWIDTH 562 0
DWIDTH 8 0
BBX 7 8 0 0
BITMAP
1014
742C
742C
742C
742C
783C
3EFC
0BE8
ENDCHAR
STARTCHAR v
ENCODING 118
SWIDTH 532 0
DWIDTH 7 0
BBX 7 8 0 0
BITMAP
5014
B43C
7878
3CB4
2EF0
0FE0
0BD0
07C0
ENDCHAR
STARTCHAR w
ENCODING 119
SWIDTH 756 0
DWIDTH 11 0
BBX 10 8 0 0
BITMAP
105050
78B4F0
78B4F0
78B4F0
78B4F0
78B4F0
3EFFE0
1FEF80
ENDCHAR
STARTCHAR x
ENCODING 120
SWIDTH 528 0
DWIDTH 7 0
BBX 7 8 0 0
BITMAP
5014
7878
2EF0
0FD0
0BC0
1FE0
3DB4
B87C
ENDCHAR
STARTCHAR y
ENCODING 121
SWIDTH 562 0
DWIDTH 8 0
BBX 8 11 0 -3
BITMAP
1014
742D
742D
742D
742D
783D
3EFD
0BFC
00BC
0BF4
0680
ENDCHAR
STARTCHAR z
ENCODING 122
SWIDTH 481 0
DWIDTH 7 0
BBX 7 8 0 0
BITMAP
5550
BFF0
6BD0
0380
0B40
1E00
2FF4
7FF4
ENDCHAR
STARTCHAR braceleft
ENCODING 123
SWIDTH 466 0
DWIDTH 7 0
BBX 6 14 0 -2
BITMAP
0050
07F0
0FA0
0F00
0F00
0F00
BE00
BD00
0F00
0F00
0F00
0FA0
0BF0
0150
ENDCHAR
STARTCHAR bar
ENCODING 124
SWIDTH 267 0
DWIDTH 4 0
BBX 2 14 1 -2
BITMAP
50
F0
F0
F0
F0
F0
F0
F0
F0
F0
F0
F0
F0
50
ENDCHAR
STARTCHAR braceright
ENCODING 125
SWIDTH 466 0
DWIDTH 7 0
BBX 7 14 0 -2
BITMAP
1400
7F00
6F40
0B40
0B40
0780
03F4
03F4
0780
0B40
0B40
6B40
7F00
5400
ENDCHAR
STARTCHAR asciitilde
ENCODING 126
SWIDTH 451 0
DWIDTH 6 0
BBX 6 3 0 4
BITMAP
1450
7EE0
76D0
ENDCHAR
STARTCHAR nonbreakingspace
ENCODING 160
SWIDTH 279 0
DWIDTH 4 0
BBX 1 1 0 0
BITMAP
00
ENDCHAR
STARTCHAR exclamdown
ENCODING 161
SWIDTH 274 0
DWIDTH 4 0
BBX 3 11 0 -2
BITMAP
10
3C
38
14
38
38
3C
3C
3C
7C
7C
ENDCHAR
STARTCHAR cent
ENCODING 162
SWIDTH 462 0
DWIDTH 6 0
BBX 6 10 0 0
BITMAP
0200
0340
1FD0
39A0
7400
7400
3EE0
1B90
0300
0300
ENDCHAR
STARTCHAR sterling
ENCODING 163
SWIDTH 681 0
DWIDTH 10 0
BBX 9 10 0 0
BITMAP
019000
0BE000
0F4000
1E0000
6F8000
7FC000
1E4000
1E03C0
1FFF80
1FFE00
ENDCHAR
STARTCHAR currency
ENCODING 164
SWIDTH 454 0
DWIDTH 6 0
BBX 6 6 0 2
BITMAP
1010
7FE0
35D0
3090
3AD0
66A0
ENDCHAR
STARTCHAR yen
ENCODING 165
SWIDTH 653 0
DWIDTH 9 0
BBX 9 10 0 0
BITMAP
640640
780780
780780
780B40
3D1F40
1FFE00
2FFE00
3FFF00
16E500
01E000
ENDCHAR
STARTCHAR brokenbar
ENCODING 166
SWIDTH 269 0
DWIDTH 4 0
BBX 2 14 1 -2
BITMAP
50
F0
F0
F0
F0
F0
50
50
F0
F0
F0
F0
F0
50
ENDCHAR
STARTCHAR section
ENCODING 167
SWIDTH 569 0
DWIDTH 8 0
BBX 8 10 0 0
BITMAP
1AA8
3FF8
7950
3FF8
3EBD
3D6D
2FFC
056D
7FFC
7FF4
ENDCHAR
STARTCHAR dieresis
ENCODING 168
SWIDTH 300 0
DWIDTH 4 0
BBX 4 2 0 7
BITMAP
E7
52
ENDCHAR
STARTCHAR copyright
ENCODING 169
SWIDTH 655 0
DWIDTH 9 0
BBX 9 8 0 1
BITMAP
06E400
1D5D00
37B340
690240
690180
366240
299A00
07F800
ENDCHAR
STARTCHAR ordfeminine
ENCODING 170
SWIDTH 451 0
DWIDTH 6 0
BBX 5 7 1 3
BITMAP
7E40
D740
C340
EB40
2900
5500
AA40
ENDCHAR
STARTCHAR guillemotleft
ENCODING 171
SWIDTH 704 0
DWIDTH 10 0
BBX 9 7 0 0
BITMAP
028280
0B8B80
2E1E00
7C7D00
2E1F40
0B87C0
014140
ENDCHAR
STARTCHAR logicalnot
ENCODING 172
SWIDTH 529 0
DWIDTH 7 0
BBX 7 4 0 2
BITMAP
3FF4
7FF8
0078
0014
ENDCHAR
STARTCHAR uni00AD
ENCODING 173
SWIDTH 418 0
DWIDTH 6 0
BBX 4 2 1 4
BITMAP
FF
FF
ENDCHAR
STARTCHAR registered
ENCODING 174
SWIDTH 439 0
DWIDTH 6 0
BBX 6 5 0 5
BITMAP
1A40
2A90
5960
5E50
2A80
ENDCHAR
STARTCHAR macron
ENCODING 175
SWIDTH 247 0
DWIDTH 3 0
BBX 4 2 0 7
BITMAP
FD
A9
ENDCHAR
STARTCHAR degree
ENCODING 176
SWIDTH 381 0
DWIDTH 5 0
BBX 5 5 0 5
BITMAP
1900
7F40
7280
7B80
1A00
ENDCHAR
STARTCHAR plusminus
ENCODING 177
SWIDTH 516 0
DWIDTH 7 0
BBX 7 8 0 0
BITMAP
0140
0780
7FF4
7FF4
0780
0140
7FF4
7FF4
ENDCHAR
STARTCHAR twosuperior
ENCODING 178
SWIDTH 355 0
DWIDTH 5 0
BBX 5 5 0 5
BITMAP
2A00
2B40
2F00
7900
7F00
ENDCHAR
STARTCHAR threesuperior
ENCODING 179
SWIDTH 354 0
DWIDTH 5 0
BBX 5 5 0 5
BITMAP
2A00
2B40
2F40
2B40
7E00
ENDCHAR
STARTCHAR acute
ENCODING 180
SWIDTH 225 0
DWIDTH 3 0
BBX 3 3 0 7
BITMAP
14
7C
A0
ENDCHAR
STARTCHAR mu
ENCODING 181
SWIDTH 571 0
DWIDTH 8 0
BBX 7 11 1 -3
BITMAP
5010
E074
E074
E074
E074
F0B4
FEF4
FF94
D000
D000
D000
ENDCHAR
STARTCHAR paragraph
ENCODING 182
SWIDTH 808 0
DWIDTH 11 0
BBX 11 10 0 0
BITMAP
06AAA4
1FFFF4
3D78B4
7878B4
7878B4
7D78B4
2FF8B4
07F8B4
0078B4
0078B4
ENDCHAR
STARTCHAR periodcentered
ENCODING 183
SWIDTH 261 0
DWIDTH 4 0
BBX 3 3 0 3
BITMAP
38
7C
10
ENDCHAR
STARTCHAR cedilla
ENCODING 184
SWIDTH 208 0
DWIDTH 3 0
BBX 3 4 0 -3
BITMAP
10
34
6C
B8
ENDCHAR
STARTCHAR onesuperior
ENCODING 185
SWIDTH 231 0
DWIDTH 3 0
BBX 3 5 0 5
BITMAP
64
74
34
34
34
ENDCHAR
STARTCHAR ordmasculine
ENCODING 186
SWIDTH 432 0
DWIDTH 6 0
BBX 6 7 0 3
BITMAP
1F40
35C0
70D0
3AC0
0A00
1540
2A90
ENDCHAR
STARTCHAR guillemotright
ENCODING 187
SWIDTH 703 0
DWIDTH 10 0
BBX 10 7 0 0
BITMAP
242800
3D2E00
0F4B80
07C3D0
1F4F40
7D3D00
241400
ENDCHAR
STARTCHAR onequarter
ENCODING 188
SWIDTH 648 0
DWIDTH 9 0
BBX 9 10 0 0
BITMAP
281800
282800
287000
28E000
29C000
036500
0B3B00
0D7B40
287F80
740740
ENDCHAR
STARTCHAR onehalf
ENCODING 189
SWIDTH 637 0
DWIDTH 9 0
BBX 9 10 0 0
BITMAP
281800
282800
287000
28E000
29C000
036A00
0B1B40
0D2F00
283900
743F40
ENDCHAR
STARTCHAR threequarters
ENCODING 190
SWIDTH 708 0
DWIDTH 10 0
BBX 10 10 0 0
BITMAP
690600
6B0E00
3F2C00
2B7400
7EB000
01D940
029EC0
075EC0
0A1FD0
1C01C0
ENDCHAR
STARTCHAR questiondown
ENCODING 191
SWIDTH 602 0
DWIDTH 8 0
BBX 8 11 0 -2
BITMAP
0010
00B4
00B4
0050
00F0
1BF0
3F80
7800
7800
3FFF
1BFF
ENDCHAR
STARTCHAR Agrave
ENCODING 192
SWIDTH 673 0
DWIDTH 9 0
BBX 9 14 0 0
BITMAP
020000
078000
01C000
000000
02A400
1FFE00
2E5F40
3C0780
780780
780780
7FFF80
7FFF80
780780
780780
ENDCHAR
STARTCHAR Aacute
ENCODING 193
SWIDTH 673 0
DWIDTH 9 0
BBX 9 14 0 0
BITMAP
001400
007C00
00A000
000000
02A400
1FFE00
2E5F40
3C0780
780780
780780
7FFF80
7FFF80
780780
780780
ENDCHAR
STARTCHAR Acircumflex
ENCODING 194
SWIDTH 673 0
DWIDTH 9 0
BBX 9 13 0 0
BITMAP
004000
02F000
026400
02A400
1FFE00
2E5F40
3C0780
780780
780780
7FFF80
7FFF80
780780
780780
ENDCHAR
STARTCHAR Atilde
ENCODING 195
SWIDTH 673 0
DWIDTH 9 0
BBX 9 13 0 0
BITMAP
025800
07FC00
062400
02A400
1FFE00
2E5F40
3C0780
780780
780780
7FFF80
7FFF80
780780
780780
ENDCHAR
STARTCHAR Adieresis
ENCODING 196
SWIDTH 673 0
DWIDTH 9 0
BBX 9 12 0 0
BITMAP
076800
021400
02A400
1FFE00
2E5F40
3C0780
780780
780780
7FFF80
7FFF80
780780
780780
ENDCHAR
STARTCHAR Aring
ENCODING 197
SWIDTH 673 0
DWIDTH 9 0
BBX 9 12 0 0
BITMAP
01E000
02B000
02F400
1FFE00
2E5F40
3C0780
780780
780780
7FFF80
7FFF80
780780
780780
ENDCHAR
STARTCHAR AE
ENCODING 198
SWIDTH 988 0
DWIDTH 14 0
BBX 14 10 0 0
BITMAP
02AAAA90
1FFFFFD0
2E478000
3C078000
7807FE00
7807FF00
7FFF8000
7FFF8000
7807FFD0
7807FFD0
ENDCHAR
STARTCHAR Ccedilla
ENCODING 199
SWIDTH 640 0
DWIDTH 9 0
BBX 9 13 0 -3
BITMAP
02B900
0FFF80
2E4600
780000
B40000
B40000
780000
3E0100
1FEF40
06FE00
00D000
01B000
02E000
ENDCHAR
STARTCHAR Egrave
ENCODING 200
SWIDTH 578 0
DWIDTH 8 0
BBX 7 13 1 0
BITMAP
0400
2E00
0A00
AAA4
FFF8
F000
F000
FFC0
FFC0
F000
F000
FFF8
FFF8
ENDCHAR
STARTCHAR Eacute
ENCODING 201
SWIDTH 578 0
DWIDTH 8 0
BBX 7 14 1 0
BITMAP
0080
02D0
0740
0000
AAA4
FFF8
F000
F000
FFC0
FFC0
F000
F000
FFF8
FFF8
ENDCHAR
STARTCHAR Ecircumflex
ENCODING 202
SWIDTH 578 0
DWIDTH 8 0
BBX 7 13 1 0
BITMAP
0100
1F80
1980
AAA4
FFF8
F000
F000
FFC0
FFC0
F000
F000
FFF8
FFF8
ENDCHAR
STARTCHAR Edieresis
ENCODING 203
SWIDTH 578 0
DWIDTH 8 0
BBX 7 12 1 0
BITMAP
29D0
1480
AAA4
FFF8
F000
F000
FFC0
FFC0
F000
F000
FFF8
FFF8
ENDCHAR
STARTCHAR Igrave
ENCODING 204
SWIDTH 270 0
DWIDTH 4 0
BBX 4 13 -1 0
BITMAP
10
7C
1D
0A
0F
0F
0F
0F
0F
0F
0F
0F
0F
ENDCHAR
STARTCHAR Iacute
ENCODING 205
SWIDTH 270 0
DWIDTH 4 0
BBX 3 14 1 0
BITMAP
14
7C
A0
00
A0
F0
F0
F0
F0
F0
F0
F0
F0
F0
ENDCHAR
STARTCHAR Icircumflex
ENCODING 206
SWIDTH 270 0
DWIDTH 4 0
BBX 4 13 0 0
BITMAP
14
7D
99
28
3C
3C
3C
3C
3C
3C
3C
3C
3C
ENDCHAR
STARTCHAR Idieresis
ENCODING 207
SWIDTH 270 0
DWIDTH 4 0
BBX 4 12 0 0
BITMAP
DB
85
28
3C
3C
3C
3C
3C
3C
3C
3C
3C
ENDCHAR
STARTCHAR Eth
ENCODING 208
SWIDTH 672 0
DWIDTH 9 0
BBX 9 10 0 0
BITMAP
2AA000
2FFD00
2D6F40
2C0780
BF43C0
FF43C0
2C0780
2C1F40
2FFE00
2FE400
ENDCHAR
STARTCHAR Ntilde
ENCODING 209
SWIDTH 689 0
DWIDTH 10 0
BBX 8 13 1 0
BITMAP
0920
1FF0
1890
A41A
F81E
FD1E
FF1E
FB9E
F3DE
F1FE
F0BE
F07E
F02E
ENDCHAR
STARTCHAR Ograve
ENCODING 210
SWIDTH 777 0
DWIDTH 11 0
BBX 11 15 0 -1
BITMAP
004000
02E000
00A000
000000
01B900
0FFF80
2E46E0
7800F4
B400B4
B400B4
7800B4
3E02F0
1FEFD0
06FE40
001000
ENDCHAR
STARTCHAR Oacute
ENCODING 211
SWIDTH 777 0
DWIDTH 11 0
BBX 11 15 0 -1
BITMAP
000400
002E00
003800
000000
01B900
0FFF80
2E46E0
7800F4
B400B4
B400B4
7800B4
3E02F0
1FEFD0
06FE40
001000
ENDCHAR
STARTCHAR Ocircumflex
ENCODING 212
SWIDTH 777 0
DWIDTH 11 0
BBX 11 14 0 -1
BITMAP
001000
00B800
009800
01B900
0FFF80
2E46E0
7800F4
B400B4
B400B4
7800B4
3E02F0
1FEFD0
06FE40
001000
ENDCHAR
STARTCHAR Otilde
ENCODING 213
SWIDTH 777 0
DWIDTH 11 0
BBX 11 14 0 -1
BITMAP
019500
02FE00
015800
01B900
0FFF80
2E46E0
7800F4
B400B4
B400B4
7800B4
3E02F0
1FEFD0
06FE40
001000
ENDCHAR
STARTCHAR Odieresis
ENCODING 214
SWIDTH 777 0
DWIDTH 11 0
BBX 11 13 0 -1
BITMAP
02CD00
014900
01B900
0FFF80
2E46E0
7800F4
B400B4
B400B4
7800B4
3E02F0
1FEFD0
06FE40
001000
ENDCHAR
STARTCHAR multiply
ENCODING 215
SWIDTH 479 0
DWIDTH 7 0
BBX 5 6 1 2
BITMAP
5100
FB80
BF40
7F40
FB80
5100
ENDCHAR
STARTCHAR Oslash
ENCODING 216
SWIDTH 777 0
DWIDTH 11 0
BBX 11 11 0 -1
BITMAP
01BAA0
0FFFD0
2E4BE0
781EF4
B438B4
B4B0B4
7AD0B4
3F82F0
1FEFD0
2EFE40
001000
ENDCHAR
STARTCHAR Ugrave
ENCODING 217
SWIDTH 673 0
DWIDTH 9 0
BBX 9 13 0 0
BITMAP
020000
078000
01D000
280680
780780
780780
780780
780780
780780
3C0780
3D1F40
1FFE00
06F800
ENDCHAR
STARTCHAR Uacute
ENCODING 218
SWIDTH 673 0
DWIDTH 9 0
BBX 9 14 0 0
BITMAP
001400
007C00
00A000
000000
280680
780780
780780
780780
780780
780780
3C0780
3D1F40
1FFE00
06F800
ENDCHAR
STARTCHAR Ucircumflex
ENCODING 219
SWIDTH 673 0
DWIDTH 9 0
BBX 9 13 0 0
BITMAP
004000
02F000
026400
280680
780780
780780
780780
780780
780780
3C0780
3D1F40
1FFE00
06F800
ENDCHAR
STARTCHAR Udieresis
ENCODING 220
SWIDTH 673 0
DWIDTH 9 0
BBX 9 12 0 0
BITMAP
076800
021400
280680
780780
780780
780780
780780
780780
3C0780
3D1F40
1FFE00
06F800
ENDCHAR
STARTCHAR Yacute
ENCODING 221
SWIDTH 620 0
DWIDTH 9 0
BBX 9 13 0 0
BITMAP
002000
00B400
00D000
640A40
B40B40
B40B40
B40B40
7C1F00
2FFD00
0BF400
02D000
02D000
02D000
ENDCHAR
STARTCHAR Thorn
ENCODING 222
SWIDTH 637 0
DWIDTH 9 0
BBX 8 12 1 -1
BITMAP
5000
F000
FA90
FFF8
F07D
F01E
F01E
F02D
FFF8
FFE0
F000
5000
ENDCHAR
STARTCHAR germandbls
ENCODING 223
SWIDTH 813 0
DWIDTH 11 0
BBX 12 11 0 0
BITMAP
06FE00
1FFF80
2D03C0
7C07C0
BC7F40
7CF900
2CFA50
2C7FFC
2C056D
2C7FFC
2C7FF4
ENDCHAR
STARTCHAR agrave
ENCODING 224
SWIDTH 607 0
DWIDTH 9 0
BBX 8 11 0 0
BITMAP
0500
0F40
0680
0691
2FFA
7D7E
B41E
B40E
782E
3FFE
1BE6
ENDCHAR
STARTCHAR aacute
ENCODING 225
SWIDTH 607 0
DWIDTH 9 0
BBX 8 11 0 0
BITMAP
0010
01F4
0190
0691
2FFA
7D7E
B41E
B40E
782E
3FFE
1BE6
ENDCHAR
STARTCHAR acircumflex
ENCODING 226
SWIDTH 607 0
DWIDTH 9 0
BBX 8 11 0 0
BITMAP
0140
07D0
0560
0691
2FFA
7D7E
B41E
B40E
782E
3FFE
1BE6
ENDCHAR
STARTCHAR atilde
ENCODING 227
SWIDTH 607 0
DWIDTH 9 0
BBX 8 11 0 0
BITMAP
0624
0FF4
0860
0691
2FFA
7D7E
B41E
B40E
782E
3FFE
1BE6
ENDCHAR
STARTCHAR adieresis
ENCODING 228
SWIDTH 607 0
DWIDTH 9 0
BBX 8 10 0 0
BITMAP
0E70
0520
0691
2FFA
7D7E
B41E
B40E
782E
3FFE
1BE6
ENDCHAR
STARTCHAR aring
ENCODING 229
SWIDTH 607 0
DWIDTH 9 0
BBX 8 11 0 0
BITMAP
0280
0690
0280
0691
2FFA
7D7E
B41E
B40E
782E
3FFE
1BE6
ENDCHAR
STARTCHAR ae
ENCODING 230
SWIDTH 976 0
DWIDTH 14 0
BBX 14 8 0 0
BITMAP
06911900
2FFBFFC0
7D7FEBC0
B41F8F40
B40FAD00
782FF940
3FFFFBD0
1BE6BF40
ENDCHAR
STARTCHAR ccedilla
ENCODING 231
SWIDTH 521 0
DWIDTH 7 0
BBX 7 11 0 -3
BITMAP
0690
1FF8
7D78
B410
B400
7810
3FBC
0BE4
0240
02C0
0BC0
ENDCHAR
STARTCHAR egrave
ENCODING 232
SWIDTH 524 0
DWIDTH 7 0
BBX 7 11 0 0
BITMAP
0400
1F00
0740
0690
2FF8
7DB8
B5E0
B7C0
7F50
3FBC
0BE4
ENDCHAR
STARTCHAR eacute
ENCODING 233
SWIDTH 524 0
DWIDTH 7 0
BBX 7 11 0 0
BITMAP
0010
01F0
0190
0690
2FF8
7DB8
B5E0
B7C0
7F50
3FBC
0BE4
ENDCHAR
STARTCHAR ecircumflex
ENCODING 234
SWIDTH 524 0
DWIDTH 7 0
BBX 7 11 0 0
BITMAP
0100
0BC0
0990
0690
2FF8
7DB8
B5E0
B7C0
7F50
3FBC
0BE4
ENDCHAR
STARTCHAR edieresis
ENCODING 235
SWIDTH 524 0
DWIDTH 7 0
BBX 7 10 0 0
BITMAP
1DA0
0850
0690
2FF8
7DB8
B5E0
B7C0
7F50
3FBC
0BE4
ENDCHAR
STARTCHAR igrave
ENCODING 236
SWIDTH 235 0
DWIDTH 3 0
BBX 4 11 -1 0
BITMAP
20
78
1C
05
1E
1E
1E
1E
1E
1E
1E
ENDCHAR
STARTCHAR iacute
ENCODING 237
SWIDTH 235 0
DWIDTH 3 0
BBX 4 11 0 0
BITMAP
05
1E
28
14
78
78
78
78
78
78
78
ENDCHAR
STARTCHAR icircumflex
ENCODING 238
SWIDTH 235 0
DWIDTH 3 0
BBX 4 11 0 0
BITMAP
10
BC
99
14
78
78
78
78
78
78
78
ENDCHAR
STARTCHAR idieresis
ENCODING 239
SWIDTH 235 0
DWIDTH 3 0
BBX 5 9 -1 0
BITMAP
7680
2640
1E00
1E00
1E00
1E00
1E00
1E00
1E00
ENDCHAR
STARTCHAR eth
ENCODING 240
SWIDTH 581 0
DWIDTH 8 0
BBX 8 11 0 0
BITMAP
0290
0BF9
0AFD
05B8
1FFD
7D7D
B41E
B40E
782E
3FFC
0BE4
ENDCHAR
STARTCHAR ntilde
ENCODING 241
SWIDTH 562 0
DWIDTH 8 0
BBX 8 11 0 0
BITMAP
0620
1FF0
0890
0140
7FF4
7EBC
782D
782D
782D
782D
782D
ENDCHAR
STARTCHAR ograve
ENCODING 242
SWIDTH 579 0
DWIDTH 8 0
BBX 8 11 0 0
BITMAP
0500
0F40
0640
0690
2FF8
7D7D
B41E
B40E
782E
3FFC
0BE4
ENDCHAR
STARTCHAR oacute
ENCODING 243
SWIDTH 579 0
DWIDTH 8 0
BBX 8 11 0 0
BITMAP
0010
01F0
0190
0690
2FF8
7D7D
B41E
B40E
782E
3FFC
0BE4
ENDCHAR
STARTCHAR ocircumflex
ENCODING 244
SWIDTH 579 0
DWIDTH 8 0
BBX 8 11 0 0
BITMAP
0140
07D0
0550
0690
2FF8
7D7D
B41E
B40E
782E
3FFC
0BE4
ENDCHAR
STARTCHAR otilde
ENCODING 245
SWIDTH 579 0
DWIDTH 8 0
BBX 8 11 0 0
BITMAP
0620
0FF4
0850
0690
2FF8
7D7D
B41E
B40E
782E
3FFC
0BE4
ENDCHAR
STARTCHAR odieresis
ENCODING 246
SWIDTH 579 0
DWIDTH 8 0
BBX 8 10 0 0
BITMAP
0E70
0560
0690
2FF8
7D7D
B41E
B40E
782E
3FFC
0BE4
ENDCHAR
STARTCHAR divide
ENCODING 247
SWIDTH 494 0
DWIDTH 7 0
BBX 7 8 0 1
BITMAP
0100
0740
0200
7FF4
7FF4
0200
0740
0100
ENDCHAR
STARTCHAR oslash
ENCODING 248
SWIDTH 579 0
DWIDTH 8 0
BBX 8 8 0 0
BITMAP
0695
2FFC
7DBD
B5EE
B79E
7F2E
3FFC
7FE4
ENDCHAR
STARTCHAR ugrave
ENCODING 249
SWIDTH 562 0
DWIDTH 8 0
BBX 7 11 0 0
BITMAP
0400
1F00
0740
1014
742C
742C
742C
742C
783C
3EFC
0BE8
ENDCHAR
STARTCHAR uacute
ENCODING 250
SWIDTH 562 0
DWIDTH 8 0
BBX 7 11 0 0
BITMAP
0050
01F0
0280
1014
742C
742C
742C
742C
783C
3EFC
0BE8
ENDCHAR
STARTCHAR ucircumflex
ENCODING 251
SWIDTH 562 0
DWIDTH 8 0
BBX 7 11 0 0
BITMAP
0140
07D0
0990
1014
742C
742C
742C
742C
783C
3EFC
0BE8
ENDCHAR
STARTCHAR udieresis
ENCODING 252
SWIDTH 562 0
DWIDTH 8 0
BBX 7 9 0 0
BITMAP
0DB0
1864
742C
742C
742C
742C
783C
3EFC
0BE8
ENDCHAR
STARTCHAR yacute
ENCODING 253
SWIDTH 562 0
DWIDTH 8 0
BBX 8 14 0 -3
BITMAP
0050
01F0
0280
1014
742D
742D
742D
742D
783D
3EFD
0BFC
00BC
0BF4
0680
ENDCHAR
STARTCHAR thorn
ENCODING 254
SWIDTH 608 0
DWIDTH 9 0
BBX 9 14 0 -3
BITMAP
140000
780000
780000
799000
7FFC00
7E6E00
780F00
780B40
7C0F00
7FBE00
7FF800
780000
780000
640000
ENDCHAR
STARTCHAR ydieresis
ENCODING 255
SWIDTH 562 0
DWIDTH 8 0
BBX 8 13 0 -3
BITMAP
0DB0
0850
1014
742D
742D
742D
742D
783D
3EFD
0BFC
00BC
0BF4
0680
ENDCHAR
STARTCHAR Amacron
ENCODING 256
SWIDTH 673 0
DWIDTH 9 0
BBX 9 12 0 0
BITMAP
03F400
02A400
02A400
1FFE00
2E5F40
3C0780
780780
780780
7FFF80
7FFF80
780780
780780
ENDCHAR
STARTCHAR amacron
ENCODING 257
SWIDTH 607 0
DWIDTH 9 0
BBX 8 10 0 0
BITMAP
0BE0
0690
0691
2FFA
7D7E
B41E
B40E
782E
3FFE
1BE6
ENDCHAR
STARTCHAR Abreve
ENCODING 258
SWIDTH 673 0
DWIDTH 9 0
BBX 9 13 0 0
BITMAP
016000
02F000
005000
02A400
1FFE00
2E5F40
3C0780
780780
780780
7FFF80
7FFF80
780780
780780
ENDCHAR
STARTCHAR abreve
ENCODING 259
SWIDTH 607 0
DWIDTH 9 0
BBX 8 11 0 0
BITMAP
0550
0BD0
0140
0691
2FFA
7D7E
B41E
B40E
782E
3FFE
1BE6
ENDCHAR
STARTCHAR Aogonek
ENCODING 260
SWIDTH 673 0
DWIDTH 9 0
BBX 9 13 0 -3
BITMAP
02A400
1FFE00
2E5F40
3C0780
780780
780780
7FFF80
7FFF80
780780
780780
000600
000B80
000140
ENDCHAR
STARTCHAR aogonek
ENCODING 261
SWIDTH 607 0
DWIDTH 9 0
BBX 9 11 0 -3
BITMAP
069100
2FFA00
7D7E00
B41E00
B40E00
782E00
3FFE00
1BE600
000900
000F80
000500
ENDCHAR
STARTCHAR Cacute
ENCODING 262
SWIDTH 640 0
DWIDTH 9 0
BBX 9 15 0 -1
BITMAP
000800
003D00
007400
000000
02B900
0FFF80
2E4600
780000
B40000
B40000
780000
3E0100
1FEF40
06FE00
001000
ENDCHAR
STARTCHAR cacute
ENCODING 263
SWIDTH 521 0
DWIDTH 7 0
BBX 7 11 0 0
BITMAP
0050
01F0
0280
0690
1FF8
7D78
B410
B400
B810
3FBC
0BE4
ENDCHAR
STARTCHAR Ccircumflex
ENCODING 264
SWIDTH 640 0
DWIDTH 9 0
BBX 9 14 0 -1
BITMAP
005000
01F400
019800
02B900
0FFF80
2E4600
780000
B40000
B40000
780000
3E0100
1FEF40
06FE00
001000
ENDCHAR
STARTCHAR ccircumflex
ENCODING 265
SWIDTH 521 0
DWIDTH 7 0
BBX 7 11 0 0
BITMAP
0140
07D0
0550
0690
1FF8
7D78
B410
B400
B810
3FBC
0BE4
ENDCHAR
STARTCHAR Cdotaccent
ENCODING 266
SWIDTH 640 0
DWIDTH 9 0
BBX 9 14 0 -1
BITMAP
001000
007000
001000
02B900
0FFF80
2E4600
780000
B40000
B40000
780000
3E0100
1FEF40
06FE00
001000
ENDCHAR
STARTCHAR cdotaccent
ENCODING 267
SWIDTH 521 0
DWIDTH 7 0
BBX 7 10 0 0
BITMAP
02C0
0140
0690
1FF8
7D78
B410
B400
B810
3FBC
0BE4
ENDCHAR
STARTCHAR Ccaron
ENCODING 268
SWIDTH 640 0
DWIDTH 9 0
BBX 9 14 0 -1
BITMAP
008800
00F800
002000
02B900
0FFF80
2E4600
780000
B40000
B40000
780000
3E0100
1FEF40
06FE00
001000
ENDCHAR
STARTCHAR ccaron
ENCODING 269
SWIDTH 521 0
DWIDTH 7 0
BBX 7 11 0 0
BITMAP
0550
07D0
0140
0690
1FF8
7D78
B410
B400
B810
3FBC
0BE4
ENDCHAR
STARTCHAR Dcaron
ENCODING 270
SWIDTH 653 0
DWIDTH 9 0
BBX 8 13 1 0
BITMAP
0880
0BC0
0200
AA40
FFF4
F1BC
F02D
F01E
F01E
F02E
F0BC
FFF4
FF90
ENDCHAR
STARTCHAR dcaron
ENCODING 271
SWIDTH 740 0
DWIDTH 10 0
BBX 11 11 0 0
BITMAP
000500
000E60
000E74
069E20
1FFE00
7D7E00
B41E00
B40E00
782E00
3FFE00
0BE600
ENDCHAR
STARTCHAR Dcroat
ENCODING 272
SWIDTH 672 0
DWIDTH 9 0
BBX 9 10 0 0
BITMAP
2AA000
2FFD00
2D6F40
2C0780
BF43C0
FF43C0
2C0780
2C1F40
2FFE00
2FE400
ENDCHAR
STARTCHAR dcroat
ENCODING 273
SWIDTH 606 0
DWIDTH 9 0
BBX 9 11 0 0
BITMAP
000500
002F40
003F80
069E00
1FFE00
7D7E00
B41E00
B40E00
782E00
3FFE00
0BE600
ENDCHAR
STARTCHAR Emacron
ENCODING 274
SWIDTH 578 0
DWIDTH 8 0
BBX 7 12 1 0
BITMAP
1FD0
0A80
AAA4
FFF8
F000
F000
FFC0
FFC0
F000
F000
FFF8
FFF8
ENDCHAR
STARTCHAR emacron
ENCODING 275
SWIDTH 524 0
DWIDTH 7 0
BBX 7 10 0 0
BITMAP
0BE0
0690
0690
2FF8
7DB8
B5E0
B7C0
7F50
3FBC
0BE4
ENDCHAR
STARTCHAR Ebreve
ENCODING 276
SWIDTH 578 0
DWIDTH 8 0
BBX 7 13 1 0
BITMAP
0540
0F80
0500
AAA4
FFF8
F000
F000
FFC0
FFC0
F000
F000
FFF8
FFF8
ENDCHAR
STARTCHAR ebreve
ENCODING 277
SWIDTH 524 0
DWIDTH 7 0
BBX 7 11 0 0
BITMAP
0540
0BD0
0140
0690
2FF8
7DB8
B5E0
B7C0
7F50
3FBC
0BE4
ENDCHAR
STARTCHAR Edotaccent
ENCODING 278
SWIDTH 578 0
DWIDTH 8 0
BBX 7 13 1 0
BITMAP
0100
0700
0100
AAA4
FFF8
F000
F000
FFC0
FFC0
F000
F000
FFF8
FFF8
ENDCHAR
STARTCHAR edotaccent
ENCODING 279
SWIDTH 524 0
DWIDTH 7 0
BBX 7 10 0 0
BITMAP
0380
0140
0690
2FF8
7DB8
B5E0
B7C0
7F50
3FBC
0BE4
ENDCHAR
STARTCHAR Eogonek
ENCODING 280
SWIDTH 578 0
DWIDTH 8 0
BBX 7 13 1 -3
BITMAP
AAA4
FFF8
F000
F000
FFC0
FFC0
F000
F000
FFF8
FFF8
00C0
01F4
0050
ENDCHAR
STARTCHAR eogonek
ENCODING 281
SWIDTH 524 0
DWIDTH 7 0
BBX 7 11 0 -3
BITMAP
0690
2FF8
7DB8
B5E0
B7C0
7F50
3FBC
0BF4
00D0
01F4
0050
ENDCHAR
STARTCHAR Ecaron
ENCODING 282
SWIDTH 578 0
DWIDTH 8 0
BBX 7 13 1 0
BITMAP
0880
1F80
0200
AAA4
FFF8
F000
F000
FFC0
FFC0
F000
F000
FFF8
FFF8
ENDCHAR
STARTCHAR ecaron
ENCODING 283
SWIDTH 524 0
DWIDTH 7 0
BBX 7 11 0 0
BITMAP
0550
07D0
0140
0690
2FF8
7DB8
B5E0
B7C0
7F50
3FBC
0BE4
ENDCHAR
STARTCHAR Gcircumflex
ENCODING 284
SWIDTH 665 0
DWIDTH 9 0
BBX 9 14 0 -1
BITMAP
001000
01F800
019800
01B900
0FFF40
2E4600
7C0000
B40000
B40380
780780
3D0780
1FEF80
06FE40
001000
ENDCHAR
STARTCHAR gcircumflex
ENCODING 285
SWIDTH 607 0
DWIDTH 9 0
BBX 8 14 0 -3
BITMAP
0140
07D0
0550
0691
1FFA
7D7E
B41E
B40E
782E
3FFE
1BFE
006D
03F8
0290
ENDCHAR
STARTCHAR Gbreve
ENCODING 286
SWIDTH 665 0
DWIDTH 9 0
BBX 9 14 0 -1
BITMAP
005400
00F800
005000
01B900
0FFF40
2E4600
7C0000
B40000
B40380
780780
3D0780
1FEF80
06FE40
001000
ENDCHAR
STARTCHAR gbreve
ENCODING 287
SWIDTH 607 0
DWIDTH 9 0
BBX 8 14 0 -3
BITMAP
0550
07D0
0140
0691
1FFA
7D7E
B41E
B40E
782E
3FFE
1BFE
006D
03F8
0290
ENDCHAR
STARTCHAR Gdotaccent
ENCODING 288
SWIDTH 665 0
DWIDTH 9 0
BBX 9 13 0 -1
BITMAP
00B000
005000
01B900
0FFF40
2E4600
7C0000
B40000
B40380
780780
3D0780
1FEF80
06FE40
001000
ENDCHAR
STARTCHAR gdotaccent
ENCODING 289
SWIDTH 607 0
DWIDTH 9 0
BBX 8 13 0 -3
BITMAP
0380
0140
0691
1FFA
7D7E
B41E
B40E
782E
3FFE
1BFE
006D
03F8
0290
ENDCHAR
STARTCHAR Gcommaaccent
ENCODING 290
SWIDTH 665 0
DWIDTH 9 0
BBX 9 14 0 -4
BITMAP
01B900
0FFF40
2E4600
7C0000
B40000
B40380
780780
3D0780
1FEF80
06FE40
005000
00B000
007000
001000
ENDCHAR
STARTCHAR gcommaaccent
ENCODING 291
SWIDTH 607 0
DWIDTH 9 0
BBX 8 14 0 -3
BITMAP
0240
03C0
0140
0691
1FFA
7D7E
B41E
B40E
782E
3FFE
1BFE
006D
03F8
0290
ENDCHAR
STARTCHAR Hcircumflex
ENCODING 292
SWIDTH 689 0
DWIDTH 10 0
BBX 8 13 1 0
BITMAP
0100
0BD0
0990
A01A
F01E
F01E
F01E
FFFE
FFFE
F01E
F01E
F01E
F01E
ENDCHAR
STARTCHAR hcircumflex
ENCODING 293
SWIDTH 562 0
DWIDTH 8 0
BBX 8 11 0 0
BITMAP
1040
7AF4
7A64
7940
7FF4
7EBC
782D
782D
782D
782D
782D
ENDCHAR
STARTCHAR Hbar
ENCODING 294
SWIDTH 689 0
DWIDTH 10 0
BBX 10 10 0 0
BITMAP
280680
BEABD0
BFFFD0
7D5780
3FFF80
3FFF80
3C0780
3C0780
3C0780
3C0780
ENDCHAR
STARTCHAR hbar
ENCODING 295
SWIDTH 562 0
DWIDTH 8 0
BBX 8 11 0 0
BITMAP
1000
FD00
FD00
7940
7FF4
7EBC
782D
782D
782D
782D
782D
ENDCHAR
STARTCHAR Itilde
ENCODING 296
SWIDTH 270 0
DWIDTH 4 0
BBX 5 13 -1 0
BITMAP
2880
7FC0
6240
0A00
0F00
0F00
0F00
0F00
0F00
0F00
0F00
0F00
0F00
ENDCHAR
STARTCHAR itilde
ENCODING 297
SWIDTH 235 0
DWIDTH 3 0
BBX 5 11 -1 0
BITMAP
2580
BFC0
6240
0500
1E00
1E00
1E00
1E00
1E00
1E00
1E00
ENDCHAR
STARTCHAR Imacron
ENCODING 298
SWIDTH 270 0
DWIDTH 4 0
BBX 4 12 0 0
BITMAP
BE
69
28
3C
3C
3C
3C
3C
3C
3C
3C
3C
ENDCHAR
STARTCHAR imacron
ENCODING 299
SWIDTH 235 0
DWIDTH 3 0
BBX 4 9 0 0
BITMAP
FD
A9
78
78
78
78
78
78
78
ENDCHAR
STARTCHAR Ibreve
ENCODING 300
SWIDTH 270 0
DWIDTH 4 0
BBX 4 13 0 0
BITMAP
55
7D
14
28
3C
3C
3C
3C
3C
3C
3C
3C
3C
ENDCHAR
STARTCHAR ibreve
ENCODING 301
SWIDTH 235 0
DWIDTH 3 0
BBX 3 10 0 0
BITMAP
54
BC
64
78
78
78
78
78
78
78
ENDCHAR
STARTCHAR Iogonek
ENCODING 302
SWIDTH 270 0
DWIDTH 4 0
BBX 3 13 0 -3
BITMAP
28
3C
3C
3C
3C
3C
3C
3C
3C
3C
70
7C
14
ENDCHAR
STARTCHAR iogonek
ENCODING 303
SWIDTH 235 0
DWIDTH 3 0
BBX 3 14 0 -3
BITMAP
14
BC
78
14
78
78
78
78
78
78
78
60
BC
14
ENDCHAR
STARTCHAR Idotaccent
ENCODING 304
SWIDTH 270 0
DWIDTH 4 0
BBX 2 12 1 0
BITMAP
E0
50
A0
F0
F0
F0
F0
F0
F0
F0
F0
F0
ENDCHAR
STARTCHAR dotlessi
ENCODING 305
SWIDTH 235 0
DWIDTH 3 0
BBX 3 8 0 0
BITMAP
14
78
78
78
78
78
78
78
ENDCHAR
STARTCHAR IJ
ENCODING 306
SWIDTH 687 0
DWIDTH 10 0
BBX 8 10 1 0
BITMAP
A00A
F00E
F00E
F00E
F00E
F00E
F01E
F02E
F3FC
F3E0
ENDCHAR
STARTCHAR ij
ENCODING 307
SWIDTH 474 0
DWIDTH 7 0
BBX 6 14 0 -3
BITMAP
1450
BDF0
78A0
1450
78F0
78F0
78F0
78F0
78F0
78F0
78F0
02E0
2FC0
2A00
ENDCHAR
STARTCHAR Jcircumflex
ENCODING 308
SWIDTH 416 0
DWIDTH 6 0
BBX 6 13 0 0
BITMAP
0140
07D0
0550
0280
03C0
03C0
03C0
03C0
03C0
03C0
0B80
FF00
B800
ENDCHAR
STARTCHAR jcircumflex
ENCODING 309
SWIDTH 237 0
DWIDTH 3 0
BBX 6 14 -2 -3
BITMAP
0100
0BC0
0990
0140
0780
0780
0780
0780
0780
0780
0780
1F40
FE00
A400
ENDCHAR
STARTCHAR Kcommaaccent
ENCODING 310
SWIDTH 625 0
DWIDTH 9 0
BBX 8 14 1 -4
BITMAP
A029
F078
F1F0
F3D0
FB80
FFD0
FDE0
F4B4
F07C
F02D
0100
0740
0300
0100
ENDCHAR
STARTCHAR kcommaaccent
ENCODING 311
SWIDTH 539 0
DWIDTH 8 0
BBX 8 15 0 -4
BITMAP
1000
7800
7800
7814
7878
78F0
7AD0
7FE0
7EF0
7C78
783D
0100
0380
0280
0100
ENDCHAR
STARTCHAR kgreenlandic
ENCODING 312
SWIDTH 539 0
DWIDTH 8 0
BBX 8 8 0 0
BITMAP
1414
7878
78F0
7AD0
7FE0
7EF0
7C78
783D
ENDCHAR
STARTCHAR Lacute
ENCODING 313
SWIDTH 562 0
DWIDTH 8 0
BBX 7 13 1 0
BITMAP
0140
0780
0A00
A000
F000
F000
F000
F000
F000
F000
F000
FFF8
FFF8
ENDCHAR
STARTCHAR lacute
ENCODING 314
SWIDTH 235 0
DWIDTH 3 0
BBX 5 14 0 0
BITMAP
0100
0F40
1D00
1000
7800
7800
7800
7800
7800
7800
7800
7800
7800
7800
ENDCHAR
STARTCHAR Lcommaaccent
ENCODING 315
SWIDTH 562 0
DWIDTH 8 0
BBX 7 14 1 -4
BITMAP
A000
F000
F000
F000
F000
F000
F000
F000
FFF8
FFF8
0400
0E00
0600
0500
ENDCHAR
STARTCHAR lcommaaccent
ENCODING 316
SWIDTH 235 0
DWIDTH 3 0
BBX 3 15 0 -4
BITMAP
10
78
78
78
78
78
78
78
78
78
78
10
78
24
10
ENDCHAR
STARTCHAR Lcaron
ENCODING 317
SWIDTH 562 0
DWIDTH 8 0
BBX 7 10 1 0
BITMAP
A240
F380
F240
F000
F000
F000
F000
F000
FFF8
FFF8
ENDCHAR
STARTCHAR lcaron
ENCODING 318
SWIDTH 369 0
DWIDTH 5 0
BBX 5 11 0 0
BITMAP
1000
7980
7AC0
7880
7800
7800
7800
7800
7800
7800
7800
ENDCHAR
STARTCHAR Ldot
ENCODING 319
SWIDTH 745 0
DWIDTH 10 0
BBX 9 10 1 0
BITMAP
A00000
F00000
F00000
F00000
F00780
F00780
F00100
F00000
FFF800
FFF800
ENDCHAR
STARTCHAR ldotaccent
ENCODING 320
SWIDTH 463 0
DWIDTH 7 0
BBX 6 11 0 0
BITMAP
1000
7800
7800
7800
7800
79E0
79E0
7840
7800
7800
7800
ENDCHAR
STARTCHAR Lslash
ENCODING 321
SWIDTH 585 0
DWIDTH 8 0
BBX 8 10 0 0
BITMAP
2800
2D00
2D00
2E40
2F40
FD00
BD00
2D00
2FFF
2FFF
ENDCHAR
STARTCHAR lslash
ENCODING 322
SWIDTH 319 0
DWIDTH 4 0
BBX 5 11 0 0
BITMAP
1400
2C00
2C00
2C00
2E40
2F40
BD00
BC00
2C00
2C00
2C00
ENDCHAR
STARTCHAR Nacute
ENCODING 323
SWIDTH 689 0
DWIDTH 10 0
BBX 8 13 1 0
BITMAP
0050
01F0
0280
A41A
F81E
FD1E
FF1E
FB9E
F3DE
F1FE
F0BE
F07E
F02E
ENDCHAR
STARTCHAR nacute
ENCODING 324
SWIDTH 562 0
DWIDTH 8 0
BBX 8 11 0 0
BITMAP
0020
00B4
01D0
0140
7FF4
7EBC
782D
782D
782D
782D
782D
ENDCHAR
STARTCHAR Ncommaaccent
ENCODING 325
SWIDTH 689 0
DWIDTH 10 0
BBX 8 14 1 -4
BITMAP
A41A
F81E
FD1E
FF1E
FB9E
F3DE
F1FE
F0BE
F07E
F02E
0100
0380
0280
0100
ENDCHAR
STARTCHAR ncommaaccent
ENCODING 326
SWIDTH 562 0
DWIDTH 8 0
BBX 8 12 0 -4
BITMAP
0140
7FF4
7EBC
782D
782D
782D
782D
782D
0100
0380
0180
0140
ENDCHAR
STARTCHAR Ncaron
ENCODING 327
SWIDTH 689 0
DWIDTH 10 0
BBX 8 13 1 0
BITMAP
0950
0BD0
0140
A41A
F81E
FD1E
FF1E
FB9E
F3DE
F1FE
F0BE
F07E
F02E
ENDCHAR
STARTCHAR ncaron
ENCODING 328
SWIDTH 562 0
DWIDTH 8 0
BBX 8 11 0 0
BITMAP
0550
07D0
0140
0140
7FF4
7EBC
782D
782D
782D
782D
782D
ENDCHAR
STARTCHAR napostrophe
ENCODING 329
SWIDTH 694 0
DWIDTH 10 0
BBX 9 10 0 0
BITMAP
900000
E00000
501400
07FF40
07EB80
0783C0
0742C0
0742C0
0742C0
0742C0
ENDCHAR
STARTCHAR Eng
ENCODING 330
SWIDTH 689 0
DWIDTH 10 0
BBX 8 13 1 -3
BITMAP
A41A
F81E
FD1E
FF1E
FB9E
F3DE
F1FE
F0BE
F07E
F02E
017D
03F8
0290
ENDCHAR
STARTCHAR eng
ENCODING 331
SWIDTH 562 0
DWIDTH 8 0
BBX 8 11 0 -3
BITMAP
0140
7FF4
7EBC
782D
782D
782D
782D
782D
007C
07F4
0680
ENDCHAR
STARTCHAR Omacron
ENCODING 332
SWIDTH 777 0
DWIDTH 11 0
BBX 11 13 0 -1
BITMAP
01FC00
00A800
01B900
0FFF80
2E46E0
7800F4
B400B4
B400B4
7800B4
3E02F0
1FEFD0
06FE40
001000
ENDCHAR
STARTCHAR omacron
ENCODING 333
SWIDTH 579 0
DWIDTH 8 0
BBX 8 10 0 0
BITMAP
0BE0
0690
0690
2FF8
7D7D
B41E
B40E
782E
3FFC
0BE4
ENDCHAR
STARTCHAR Obreve
ENCODING 334
SWIDTH 777 0
DWIDTH 11 0
BBX 11 14 0 -1
BITMAP
005400
00FC00
001400
01B900
0FFF80
2E46E0
7800F4
B400B4
B400B4
7800B4
3E02F0
1FEFD0
06FE40
001000
ENDCHAR
STARTCHAR obreve
ENCODING 335
SWIDTH 579 0
DWIDTH 8 0
BBX 8 11 0 0
BITMAP
0550
07E0
0140
0690
2FF8
7D7D
B41E
B40E
782E
3FFC
0BE4
ENDCHAR
STARTCHAR Ohungarumlaut
ENCODING 336
SWIDTH 777 0
DWIDTH 11 0
BBX 11 15 0 -1
BITMAP
001000
00B740
01EB40
004900
01B900
0FFF80
2E46E0
7800F4
B400B4
B400B4
7800B4
3E02F0
1FEFD0
06FE40
001000
ENDCHAR
STARTCHAR ohungarumlaut
ENCODING 337
SWIDTH 579 0
DWIDTH 8 0
BBX 8 12 0 0
BITMAP
0100
0398
0B78
0560
0690
2FF8
7D7D
B41E
B40E
782E
3FFC
0BE4
ENDCHAR
STARTCHAR OE
ENCODING 338
SWIDTH 1125 0
DWIDTH 16 0
BBX 16 11 0 -1
BITMAP
01B96AA9
0FFFFFFD
2E46F800
7800F800
B400BFE0
B400BFE0
7800B800
3E02F800
1FEFFFFD
06FEBFFD
00100000
ENDCHAR
STARTCHAR oe
ENCODING 339
SWIDTH 924 0
DWIDTH 13 0
BBX 13 8 0 0
BITMAP
06906400
2FFBFF40
7D7F9F40
B41F2D00
B40F7800
782FE200
3FFFEF40
0BE1FE00
ENDCHAR
STARTCHAR Racute
ENCODING 340
SWIDTH 651 0
DWIDTH 9 0
BBX 8 13 1 0
BITMAP
0080
02E0
0340
AA90
FFF8
F07D
F01E
F01E
F02D
FFFC
FFF0
F0B4
F078
ENDCHAR
STARTCHAR racute
ENCODING 341
SWIDTH 414 0
DWIDTH 6 0
BBX 6 11 0 0
BITMAP
0040
03D0
0640
0150
6FE0
7E90
7800
7800
7800
7800
7800
ENDCHAR
STARTCHAR Rcommaaccent
ENCODING 342
SWIDTH 651 0
DWIDTH 9 0
BBX 8 14 1 -4
BITMAP
AA90
FFF8
F07D
F01E
F01E
F02D
FFFC
FFF0
F0B4
F078
0100
0740
0240
0100
ENDCHAR
STARTCHAR rcommaaccent
ENCODING 343
SWIDTH 414 0
DWIDTH 6 0
BBX 6 12 0 -4
BITMAP
0150
6FE0
7E90
7800
7800
7800
7800
7800
1000
7400
2400
1000
ENDCHAR
STARTCHAR Rcaron
ENCODING 344
SWIDTH 651 0
DWIDTH 9 0
BBX 8 13 1 0
BITMAP
0880
0BC0
0200
AA90
FFF8
F07D
F01E
F01E
F02D
FFFC
FFF0
F0B4
F078
ENDCHAR
STARTCHAR rcaron
ENCODING 345
SWIDTH 414 0
DWIDTH 6 0
BBX 6 11 0 0
BITMAP
1540
2F40
0500
0150
6FE0
7E90
7800
7800
7800
7800
7800
ENDCHAR
STARTCHAR Sacute
ENCODING 346
SWIDTH 610 0
DWIDTH 9 0
BBX 8 14 0 0
BITMAP
0020
00B8
00D0
0000
1AAA
3FFE
B800
B400
7FE8
1FFE
001F
000F
3FFE
3FF8
ENDCHAR
STARTCHAR sacute
ENCODING 347
SWIDTH 523 0
DWIDTH 7 0
BBX 7 11 0 0
BITMAP
0050
01F0
0280
0554
2FF8
7AA4
7A50
3FF8
057C
7FFC
BFE4
ENDCHAR
STARTCHAR Scircumflex
ENCODING 348
SWIDTH 610 0
DWIDTH 9 0
BBX 8 13 0 0
BITMAP
0040
03E0
0660
1AAA
3FFE
B800
B400
7FE8
1FFE
001F
000F
3FFE
3FF8
ENDCHAR
STARTCHAR scircumflex
ENCODING 349
SWIDTH 523 0
DWIDTH 7 0
BBX 7 11 0 0
BITMAP
0100
0BC0
0990
0554
2FF8
7AA4
7A50
3FF8
057C
7FFC
BFE4
ENDCHAR
STARTCHAR Scedilla
ENCODING 350
SWIDTH 610 0
DWIDTH 9 0
BBX 8 13 0 -3
BITMAP
1AAA
3FFE
B800
B400
7FE8
1FFE
001F
000F
3FFE
3FF8
00C0
01A0
03D0
ENDCHAR
STARTCHAR scedilla
ENCODING 351
SWIDTH 523 0
DWIDTH 7 0
BBX 7 11 0 -3
BITMAP
0554
2FF8
7AA4
7A50
3FF8
057C
7FFC
BFE4
0240
02C0
0B80
ENDCHAR
STARTCHAR Scaron
ENCODING 352
SWIDTH 610 0
DWIDTH 9 0
BBX 8 13 0 0
BITMAP
0660
07E0
0180
1AAA
3FFE
B800
B400
7FE8
1FFE
001F
000F
3FFE
3FF8
ENDCHAR
STARTCHAR scaron
ENCODING 353
SWIDTH 523 0
DWIDTH 7 0
BBX 7 11 0 0
BITMAP
0950
0BD0
0140
0554
2FF8
7AA4
7A50
3FF8
057C
7FFC
BFE4
ENDCHAR
STARTCHAR Tcommaaccent
ENCODING 354
SWIDTH 578 0
DWIDTH 8 0
BBX 8 14 0 -4
BITMAP
AAAA
FFFF
03D0
03C0
03C0
03C0
03C0
03C0
03C0
03C0
0000
02C0
0180
0040
ENDCHAR
STARTCHAR tcommaaccent
ENCODING 355
SWIDTH 437 0
DWIDTH 6 0
BBX 6 15 0 -4
BITMAP
1400
3C00
3C00
7D50
BFE0
7E90
3C00
3C00
2D00
1FE0
06E0
0100
0B00
0600
0100
ENDCHAR
STARTCHAR Tcaron
ENCODING 356
SWIDTH 578 0
DWIDTH 8 0
BBX 8 13 0 0
BITMAP
0550
07D0
0140
AAAA
FFFF
03D0
03C0
03C0
03C0
03C0
03C0
03C0
03C0
ENDCHAR
STARTCHAR tcaron
ENCODING 357
SWIDTH 570 0
DWIDTH 8 0
BBX 8 11 0 0
BITMAP
1400
3C0A
3C0B
7D56
BFE0
7E90
3C00
3C00
2D00
1FE0
06E0
ENDCHAR
STARTCHAR Tbar
ENCODING 358
SWIDTH 578 0
DWIDTH 8 0
BBX 8 10 0 0
BITMAP
AAAA
FFFF
03D0
03C0
03C0
0FF0
0BE0
03C0
03C0
03C0
ENDCHAR
STARTCHAR tbar
ENCODING 359
SWIDTH 437 0
DWIDTH 6 0
BBX 6 11 0 0
BITMAP
1400
3C00
3C00
7D50
BFE0
7E90
BE40
BF40
2D00
1FE0
07E0
ENDCHAR
STARTCHAR Utilde
ENCODING 360
SWIDTH 673 0
DWIDTH 9 0
BBX 9 13 0 0
BITMAP
025800
07FC00
062400
280680
780780
780780
780780
780780
780780
3C0780
3D1F40
1FFE00
06F800
ENDCHAR
STARTCHAR utilde
ENCODING 361
SWIDTH 562 0
DWIDTH 8 0
BBX 7 11 0 0
BITMAP
0A20
1FF0
0890
1014
742C
742C
742C
742C
783C
3EFC
0BE8
ENDCHAR
STARTCHAR Umacron
ENCODING 362
SWIDTH 673 0
DWIDTH 9 0
BBX 9 12 0 0
BITMAP
03F400
02A400
280680
780780
780780
780780
780780
780780
3C0780
3D1F40
1FFE00
06F800
ENDCHAR
STARTCHAR umacron
ENCODING 363
SWIDTH 562 0
DWIDTH 8 0
BBX 7 9 0 0
BITMAP
0BE0
1AA4
742C
742C
742C
742C
783C
3EFC
0BE8
ENDCHAR
STARTCHAR Ubreve
ENCODING 364
SWIDTH 673 0
DWIDTH 9 0
BBX 9 13 0 0
BITMAP
015000
02F400
005000
280680
780780
780780
780780
780780
780780
3C0780
3D1F40
1FFE00
06F800
ENDCHAR
STARTCHAR ubreve
ENCODING 365
SWIDTH 562 0
DWIDTH 8 0
BBX 7 10 0 0
BITMAP
0550
0BD0
1554
742C
742C
742C
742C
783C
3EFC
0BE8
ENDCHAR
STARTCHAR Uring
ENCODING 366
SWIDTH 673 0
DWIDTH 9 0
BBX 9 13 0 0
BITMAP
01E000
027000
019000
280680
780780
780780
780780
780780
780780
3C0780
3D1F40
1FFE00
06F800
ENDCHAR
STARTCHAR uring
ENCODING 367
SWIDTH 562 0
DWIDTH 8 0
BBX 7 11 0 0
BITMAP
0280
0690
0280
1014
742C
742C
742C
742C
783C
3EFC
0BE8
ENDCHAR
STARTCHAR Uhungarumlaut
ENCODING 368
SWIDTH 673 0
DWIDTH 9 0
BBX 9 14 0 0
BITMAP
004000
01D900
03AE00
011400
280680
780780
780780
780780
780780
780780
3C0780
3D1F40
1FFE00
06F800
ENDCHAR
STARTCHAR uhungarumlaut
ENCODING 369
SWIDTH 562 0
DWIDTH 8 0
BBX 7 12 0 0
BITMAP
0100
07A8
0B78
0460
1014
742C
742C
742C
742C
783C
3EFC
0BE8
ENDCHAR
STARTCHAR Uogonek
ENCODING 370
SWIDTH 673 0
DWIDTH 9 0
BBX 9 13 0 -3
BITMAP
280680
780780
780780
780780
780780
780780
3C0780
3D1F40
1FFE00
06F800
028000
02E000
005000
ENDCHAR
STARTCHAR uogonek
ENCODING 371
SWIDTH 562 0
DWIDTH 8 0
BBX 8 11 0 -3
BITMAP
1014
742C
742C
742C
742C
783C
3EFC
0BE8
0018
002F
0005
ENDCHAR
STARTCHAR Wcircumflex
ENCODING 372
SWIDTH 819 0
DWIDTH 11 0
BBX 10 13 1 0
BITMAP
004000
02F000
026400
A1A1A0
E1E1E0
E1E1E0
E1E1E0
E1E1E0
E1E1E0
E1E1E0
F1E1E0
BFFFD0
2FBF40
ENDCHAR
STARTCHAR wcircumflex
ENCODING 373
SWIDTH 756 0
DWIDTH 11 0
BBX 10 11 0 0
BITMAP
001000
00F800
019800
105050
78B4F0
78B4F0
78B4F0
78B4F0
78B4F0
3EFFE0
1FEF80
ENDCHAR
STARTCHAR Ycircumflex
ENCODING 374
SWIDTH 620 0
DWIDTH 9 0
BBX 9 13 0 0
BITMAP
004000
03E000
026000
640A40
B40B40
B40B40
B40B40
7C1F00
2FFD00
0BF400
02D000
02D000
02D000
ENDCHAR
STARTCHAR ycircumflex
ENCODING 375
SWIDTH 562 0
DWIDTH 8 0
BBX 8 14 0 -3
BITMAP
0140
07D0
0550
1014
742D
742D
742D
742D
783D
3EFD
0BFC
00BC
0BF4
0680
ENDCHAR
STARTCHAR Ydieresis
ENCODING 376
SWIDTH 620 0
DWIDTH 9 0
BBX 9 12 0 0
BITMAP
0B3400
052000
640A40
B40B40
B40B40
B40B40
7C1F00
2FFD00
0BF400
02D000
02D000
02D000
ENDCHAR
STARTCHAR Zacute
ENCODING 377
SWIDTH 586 0
DWIDTH 8 0
BBX 8 13 0 0
BITMAP
0020
00B4
01D0
AAAA
BFFD
00B8
01F0
02E0
07C0
0B80
1F00
3FFF
7FFF
ENDCHAR
STARTCHAR zacute
ENCODING 378
SWIDTH 481 0
DWIDTH 7 0
BBX 7 11 0 0
BITMAP
0040
02E0
0380
5550
BFF0
6BD0
0380
0B40
1E00
2FF4
7FF4
ENDCHAR
STARTCHAR Zdotaccent
ENCODING 379
SWIDTH 586 0
DWIDTH 8 0
BBX 8 12 0 0
BITMAP
02C0
0140
AAAA
BFFD
00B8
01F0
02E0
07C0
0B80
1F00
3FFF
7FFF
ENDCHAR
STARTCHAR zdotaccent
ENCODING 380
SWIDTH 481 0
DWIDTH 7 0
BBX 7 10 0 0
BITMAP
0100
0740
5650
BFF0
6BD0
0380
0B40
1E00
2FF4
7FF4
ENDCHAR
STARTCHAR Zcaron
ENCODING 381
SWIDTH 586 0
DWIDTH 8 0
BBX 8 13 0 0
BITMAP
0550
07E0
0140
AAAA
BFFD
00B8
01F0
02E0
07C0
0B80
1F00
3FFF
7FFF
ENDCHAR
STARTCHAR zcaron
ENCODING 382
SWIDTH 481 0
DWIDTH 7 0
BBX 7 11 0 0
BITMAP
0880
0F80
0200
5550
BFF0
6BD0
0380
0B40
1E00
2FF4
7FF4
ENDCHAR
STARTCHAR AEacute
ENCODING 508
SWIDTH 988 0
DWIDTH 14 0
BBX 14 13 0 0
BITMAP
00005000
0001E000
00028000
02AAAA90
1FFFFFD0
2E478000
3C078000
7807FE00
7807FF00
7FFF8000
7FFF8000
7807FFD0
7807FFD0
ENDCHAR
STARTCHAR aeacute
ENCODING 509
SWIDTH 976 0
DWIDTH 14 0
BBX 14 11 0 0
BITMAP
00008000
0002E000
00034000
06911900
2FFBFFC0
7D7FEBC0
B41F8F40
B40FAD00
782FF940
3FFFFBD0
1BE6BF40
ENDCHAR
STARTCHAR Oslashacute
ENCODING 510
SWIDTH 777 0
DWIDTH 11 0
BBX 11 15 0 -1
BITMAP
000400
002E00
003400
000000
01BAA0
0FFFD0
2E4BE0
781EF4
B438B4
B4B0B4
7AD0B4
3F82F0
1FEFD0
2EFE40
001000
ENDCHAR
STARTCHAR oslashacute
ENCODING 511
SWIDTH 579 0
DWIDTH 8 0
BBX 8 11 0 0
BITMAP
0020
00B4
01D0
0695
2FFC
7DBD
B5EE
B79E
7F2E
3FFC
7FE4
ENDCHAR
STARTCHAR dotlessj
ENCODING 567
SWIDTH 237 0
DWIDTH 3 0
BBX 5 11 -2 -3
BITMAP
0140
0780
0780
0780
0780
0780
0780
0780
1F40
FE00
A400
ENDCHAR
STARTCHAR circumflex
ENCODING 710
SWIDTH 267 0
DWIDTH 4 0
BBX 4 3 0 7
BITMAP
14
7D
99
ENDCHAR
STARTCHAR caron
ENCODING 711
SWIDTH 267 0
DWIDTH 4 0
BBX 4 3 0 7
BITMAP
55
BD
14
ENDCHAR
STARTCHAR breve
ENCODING 728
SWIDTH 220 0
DWIDTH 3 0
BBX 3 3 0 7
BITMAP
54
FC
14
ENDCHAR
STARTCHAR dotaccent
ENCODING 729
SWIDTH 125 0
DWIDTH 2 0
BBX 2 2 0 7
BITMAP
E0
50
ENDCHAR
STARTCHAR ring
ENCODING 730
SWIDTH 192 0
DWIDTH 3 0
BBX 3 3 0 7
BITMAP
B4
D8
64
ENDCHAR
STARTCHAR ogonek
ENCODING 731
SWIDTH 212 0
DWIDTH 3 0
BBX 3 4 0 -3
BITMAP
10
90
F8
50
ENDCHAR
STARTCHAR tilde
ENCODING 732
SWIDTH 321 0
DWIDTH 5 0
BBX 5 3 0 7
BITMAP
6140
FF40
9600
ENDCHAR
STARTCHAR hungarumlaut
ENCODING 733
SWIDTH 384 0
DWIDTH 5 0
BBX 5 4 0 7
BITMAP
1000
3980
B780
4600
ENDCHAR
STARTCHAR uni0312
ENCODING 786
SWIDTH 192 0
DWIDTH 3 0
BBX 3 3 0 7
BITMAP
60
B4
10
ENDCHAR
STARTCHAR uni0315
ENCODING 789
SWIDTH 132 0
DWIDTH 2 0
BBX 2 3 0 7
BITMAP
90
E0
50
ENDCHAR
STARTCHAR uni0326
ENCODING 806
SWIDTH 193 0
DWIDTH 3 0
BBX 3 4 0 -4
BITMAP
10
B4
30
10
ENDCHAR
STARTCHAR pi
ENCODING 960
SWIDTH 555 0
DWIDTH 8 0
BBX 8 8 0 0
BITMAP
5555
BFFE
6EB9
2DB4
2DB4
2DB4
2DB4
2DB4
ENDCHAR
STARTCHAR Wgrave
ENCODING 7808
SWIDTH 819 0
DWIDTH 11 0
BBX 10 13 1 0
BITMAP
010000
0B8000
02C000
A1A1A0
E1E1E0
E1E1E0
E1E1E0
E1E1E0
E1E1E0
E1E1E0
F1E1E0
BFFFD0
2FBF40
ENDCHAR
STARTCHAR wgrave
ENCODING 7809
SWIDTH 756 0
DWIDTH 11 0
BBX 10 11 0 0
BITMAP
010000
07C000
01D000
105050
78B4F0
78B4F0
78B4F0
78B4F0
78B4F0
3EFFE0
1FEF80
ENDCHAR
STARTCHAR Wacute
ENCODING 7810
SWIDTH 819 0
DWIDTH 11 0
BBX 10 13 1 0
BITMAP
001400
007C00
00A000
A1A1A0
E1E1E0
E1E1E0
E1E1E0
E1E1E0
E1E1E0
E1E1E0
F1E1E0
BFFFD0
2FBF40
ENDCHAR
STARTCHAR wacute
ENCODING 7811
SWIDTH 756 0
DWIDTH 11 0
BBX 10 11 0 0
BITMAP
000400
001E00
002800
105050
78B4F0
78B4F0
78B4F0
78B4F0
78B4F0
3EFFE0
1FEF80
ENDCHAR
STARTCHAR Wdieresis
ENCODING 7812
SWIDTH 819 0
DWIDTH 11 0
BBX 10 12 1 0
BITMAP
076800
021400
A1A1A0
E1E1E0
E1E1E0
E1E1E0
E1E1E0
E1E1E0
E1E1E0
F1E1E0
BFFFD0
2FBF40
ENDCHAR
STARTCHAR wdieresis
ENCODING 7813
SWIDTH 756 0
DWIDTH 11 0
BBX 10 9 0 0
BITMAP
029D00
119850
78B4F0
78B4F0
78B4F0
78B4F0
78B4F0
3EFFE0
1FEF80
ENDCHAR
STARTCHAR Ygrave
ENCODING 7922
SWIDTH 620 0
DWIDTH 9 0
BBX 9 13 0 0
BITMAP
080000
1E0000
074000
640A40
B40B40
B40B40
B40B40
7C1F00
2FFD00
0BF400
02D000
02D000
02D000
ENDCHAR
STARTCHAR ygrave
ENCODING 7923
SWIDTH 562 0
DWIDTH 8 0
BBX 8 14 0 -3
BITMAP
0400
2D00
0A00
1014
742D
742D
742D
742D
783D
3EFD
0BFC
00BC
0BF4
0680
ENDCHAR
STARTCHAR endash
ENCODING 8211
SWIDTH 418 0
DWIDTH 6 0
BBX 4 2 1 4
BITMAP
FF
FF
ENDCHAR
STARTCHAR emdash
ENCODING 8212
SWIDTH 719 0
DWIDTH 10 0
BBX 9 2 1 4
BITMAP
FFFF40
FFFF40
ENDCHAR
STARTCHAR quoteleft
ENCODING 8216
SWIDTH 246 0
DWIDTH 3 0
BBX 3 4 0 6
BITMAP
20
74
7C
24
ENDCHAR
STARTCHAR quoteright
ENCODING 8217
SWIDTH 245 0
DWIDTH 3 0
BBX 3 4 0 6
BITMAP
24
78
28
20
ENDCHAR
STARTCHAR quotesinglbase
ENCODING 8218
SWIDTH 264 0
DWIDTH 4 0
BBX 3 4 0 -2
BITMAP
28
7C
28
14
ENDCHAR
STARTCHAR quotedblleft
ENCODING 8220
SWIDTH 445 0
DWIDTH 6 0
BBX 6 4 0 6
BITMAP
2080
75C0
7EE0
2590
ENDCHAR
STARTCHAR quotedblright
ENCODING 8221
SWIDTH 444 0
DWIDTH 6 0
BBX 6 4 0 6
BITMAP
2590
7AE0
28D0
2080
ENDCHAR
STARTCHAR quotedblbase
ENCODING 8222
SWIDTH 463 0
DWIDTH 7 0
BBX 6 4 0 -2
BITMAP
2990
7DE0
28A0
1480
ENDCHAR
STARTCHAR dagger
ENCODING 8224
SWIDTH 434 0
DWIDTH 6 0
BBX 6 14 0 -2
BITMAP
0500
0F00
0F00
6F90
BFE0
1F40
0F00
0F00
0F00
0F00
0F00
0F00
0F00
0500
ENDCHAR
STARTCHAR daggerdbl
ENCODING 8225
SWIDTH 452 0
DWIDTH 6 0
BBX 6 14 0 -2
BITMAP
0100
0B00
0B00
6FA0
7FE0
1F40
0B00
0B00
0B40
7FE0
6FA0
0B00
0B00
0500
ENDCHAR
STARTCHAR bullet
ENCODING 8226
SWIDTH 354 0
DWIDTH 5 0
BBX 3 4 1 3
BITMAP
10
F8
B8
10
ENDCHAR
STARTCHAR ellipsis
ENCODING 8230
SWIDTH 789 0
DWIDTH 11 0
BBX 11 3 0 -1
BITMAP
2864A0
7CB8F4
141050
ENDCHAR
STARTCHAR perthousand
ENCODING 8240
SWIDTH 998 0
DWIDTH 14 0
BBX 14 10 0 0
BITMAP
2E060000
774E0000
735C0000
77740000
2EB00000
00DA4680
02AEDED0
0769EC90
0A29DDD0
1D1F8BC0
ENDCHAR
STARTCHAR guilsinglleft
ENCODING 8249
SWIDTH 403 0
DWIDTH 6 0
BBX 5 7 0 0
BITMAP
0280
0B80
2E00
7C00
2E00
0B80
0140
ENDCHAR
STARTCHAR guilsinglright
ENCODING 8250
SWIDTH 402 0
DWIDTH 6 0
BBX 5 7 0 0
BITMAP
2400
3D00
0F40
07C0
1F40
7D00
2400
ENDCHAR
STARTCHAR fraction
ENCODING 8260
SWIDTH 477 0
DWIDTH 7 0
BBX 7 10 0 0
BITMAP
0024
0070
00E0
02C0
0340
0B00
1D00
2800
7400
A000
ENDCHAR
STARTCHAR Euro
ENCODING 8364
SWIDTH 806 0
DWIDTH 11 0
BBX 11 11 0 -1
BITMAP
002B90
01FFF4
03E460
2FFC00
2FE800
2FA400
7FF400
17E010
01FEF4
006FE0
000100
ENDCHAR
STARTCHAR trademark
ENCODING 8482
SWIDTH 606 0
DWIDTH 9 0
BBX 7 4 1 6
BITMAP
A6A4
2298
2298
1154
ENDCHAR
STARTCHAR partialdiff
ENCODING 8706
SWIDTH 609 0
DWIDTH 9 0
BBX 8 11 0 0
BITMAP
0290
01F0
00B4
01BC
1FFD
3D6E
780F
740F
781E
2FBD
0BF4
ENDCHAR
STARTCHAR product
ENCODING 8719
SWIDTH 632 0
DWIDTH 9 0
BBX 9 10 0 0
BITMAP
6AAA40
7FFF40
1E3D00
1E3C00
1E3C00
1E3C00
1E3C00
1E3C00
1E3C00
1E3C00
ENDCHAR
STARTCHAR minus
ENCODING 8722
SWIDTH 543 0
DWIDTH 8 0
BBX 6 2 1 4
BITMAP
FFE0
FFE0
ENDCHAR
STARTCHAR infinity
ENCODING 8734
SWIDTH 771 0
DWIDTH 11 0
BBX 11 7 0 1
BITMAP
0A4A40
2FFFE0
79F9F0
7474B4
7EFEF0
2FEFD0
054540
ENDCHAR
STARTCHAR approxequal
ENCODING 8776
SWIDTH 476 0
DWIDTH 7 0
BBX 5 6 1 2
BITMAP
6540
FF80
D640
6540
FF80
D640
ENDCHAR
STARTCHAR notequal
ENCODING 8800
SWIDTH 512 0
DWIDTH 7 0
BBX 7 9 0 0
BITMAP
00F0
15E0
7FF4
6BE4
1B94
7FF4
2E50
2D00
1400
ENDCHAR
STARTCHAR fi
ENCODING 64257
SWIDTH 650 0
DWIDTH 9 0
BBX 9 11 0 0
BITMAP
06F200
1FEB80
2D0740
7D5500
BFFF40
7EAB40
2C0740
2C0740
2C0740
2C0740
2C0740
ENDCHAR
STARTCHAR fl
ENCODING 64258
SWIDTH 631 0
DWIDTH 9 0
BBX 8 11 0 0
BITMAP
06FF
1FFF
2D0B
7D4B
BFDB
7E9B
2C0B
2C0B
2C0B
2C0B
2C0B
ENDCHAR
STARTCHAR .notdef
ENCODING -1
SWIDTH 279 0
DWIDTH 4 0
BBX 1 1 0 0
BITMAP
00
ENDCHAR
STARTCHAR .null
ENCODING -1
SWIDTH 0 0
DWIDTH 0 0
BBX 1 1 0 0
BITMAP
00
ENDCHAR
STARTCHAR nonmarkingreturn
ENCODING -1
SWIDTH 279 0
DWIDTH 4 0
BBX 1 1 0 0
BITMAP
00
ENDCHAR
ENDFONT
